<svg width="47" height="70" viewBox="0 0 47 70" fill="none" xmlns="http://www.w3.org/2000/svg">
<path d="M43.4932 56.4382H20.9683C26.4517 50.8537 30.7093 46.2672 33.7315 42.6847C37.1368 38.6479 39.6049 34.9345 41.0857 31.5489C42.6289 28.0932 43.4037 24.4971 43.4037 20.7711C43.4037 17.2695 42.5878 14.0651 40.9391 11.1865C39.2799 8.28937 36.8594 6.01335 33.7217 4.35601C30.6155 2.68402 26.9549 1.87466 22.7852 1.87466C14.5075 1.87466 7.71976 5.51917 2.49415 12.6589L1.80994 13.5937L2.69733 14.3384L9.59999 20.1311L10.5722 20.947L11.3637 19.9547C13.2013 17.6508 14.8894 16.0971 16.4172 15.2072L16.4234 15.2036L16.4296 15.1999C17.9859 14.2688 19.7966 13.7872 21.9002 13.7872C24.2168 13.7872 25.9347 14.4979 27.1961 15.8297L27.2041 15.8382L27.2123 15.8465C28.5218 17.1778 29.2463 19.0758 29.2463 21.7054C29.2463 24.4914 28.5884 27.1974 27.2554 29.8362L27.2554 29.8362L27.251 29.8451C25.9577 32.4572 23.699 35.7022 20.4222 39.5942L20.4214 39.5951C17.1987 43.4306 11.8192 49.3903 4.2692 57.4858L3.93657 57.8425V58.3302V67.1127V68.3507H5.17458H42.2542H43.3403L43.4817 67.2738L44.7206 57.8373L44.9043 56.4382H43.4932Z" fill="#150623" stroke="url(#paint0_linear_1_4301)" stroke-width="2.47602"/>
<defs>
<linearGradient id="paint0_linear_1_4301" x1="7.56726" y1="-22.963" x2="41.9506" y2="-22.2383" gradientUnits="userSpaceOnUse">
<stop stop-color="#EFB94C"/>
<stop offset="0.292093" stop-color="#F9DF7B"/>
<stop offset="0.501061" stop-color="#FFF3A6"/>
<stop offset="0.704642" stop-color="#F9DF7B"/>
<stop offset="1" stop-color="#EFB94C"/>
</linearGradient>
</defs>
</svg>
