<svg width="47" height="70" viewBox="0 0 47 70" fill="none" xmlns="http://www.w3.org/2000/svg">
<path d="M34.6564 32.4273C36.6016 31.4113 38.2618 30.088 39.6198 28.4491L39.6246 28.4433L39.6293 28.4375C41.8549 25.6844 42.9348 22.2882 42.9348 18.3335C42.9348 15.2531 42.1567 12.412 40.5963 9.83759C39.0725 7.22747 36.7728 5.18626 33.7663 3.69509C30.7861 2.18821 27.2679 1.46121 23.2552 1.46121C15.9759 1.46121 9.57862 4.23054 4.11232 9.68579L3.29544 10.501L4.05142 11.373L9.67913 17.8645L10.5456 18.8639L11.4855 17.9333C13.2574 16.1792 14.9889 14.9334 16.6749 14.1545L16.69 14.1475L16.7049 14.1402C18.3659 13.318 20.2244 12.8972 22.3029 12.8972C24.657 12.8972 26.4077 13.5532 27.6893 14.7562L27.6989 14.7651L27.7087 14.7739C28.956 15.8959 29.6363 17.4833 29.6363 19.7049C29.6363 22.3731 28.8562 24.3036 27.424 25.6647L27.4164 25.6719L27.4089 25.6793C26.0127 27.052 24.0981 27.7926 21.5236 27.7926H18.4068H17.347L17.1836 28.8397L15.8849 37.1597L15.6618 38.5887H17.1081H21.6968C25.0053 38.5887 27.2555 39.32 28.6711 40.5658L28.6787 40.5724L28.6863 40.5789C30.0842 41.7693 30.935 43.8672 30.935 47.2249C30.935 50.1285 30.0725 52.3188 28.4446 53.934C26.8744 55.4883 24.7299 56.3184 21.87 56.3184C19.7351 56.3184 17.8186 55.898 16.0997 55.0757C14.3581 54.1814 12.5387 52.7592 10.6477 50.7623L9.76795 49.8333L8.8684 50.7431L2.72122 56.9602L1.95563 57.7345L2.62586 58.5927C7.49436 64.8263 14.1567 67.9372 22.476 67.9372C26.962 67.9372 30.9172 67.084 34.3012 65.3298L34.3095 65.3255L34.3176 65.3211C37.6721 63.5177 40.2698 61.0808 42.0683 58.0062C43.9202 54.9392 44.8396 51.5182 44.8396 47.7735C44.8396 43.0306 43.5286 39.154 40.7675 36.306C39.0326 34.5167 36.9888 33.2261 34.6564 32.4273Z" fill="#150623" stroke="url(#paint0_linear_1_4308)" stroke-width="2.47602"/>
<defs>
<linearGradient id="paint0_linear_1_4308" x1="7.67566" y1="-23.3765" x2="42.059" y2="-22.6517" gradientUnits="userSpaceOnUse">
<stop stop-color="#EFB94C"/>
<stop offset="0.292093" stop-color="#F9DF7B"/>
<stop offset="0.501061" stop-color="#FFF3A6"/>
<stop offset="0.704642" stop-color="#F9DF7B"/>
<stop offset="1" stop-color="#EFB94C"/>
</linearGradient>
</defs>
</svg>
